<?xml version="1.0" standalone="no"?>
<!DOCTYPE svg PUBLIC "-//W3C//DTD SVG 20010904//EN"
 "http://www.w3.org/TR/2001/REC-SVG-20010904/DTD/svg10.dtd">
<svg version="1.0" xmlns="http://www.w3.org/2000/svg"
 width="3000.000000pt" height="3000.000000pt" viewBox="0 0 3000.000000 3000.000000"
 preserveAspectRatio="xMidYMid meet">
<metadata>
Created by potrace 1.14, written by Peter Selinger 2001-2017
</metadata>
<g transform="translate(0.000000,3000.000000) scale(0.100000,-0.100000)"
fill="#000000" stroke="none">
<path d="M0 15000 l0 -15000 15000 0 15000 0 0 15000 0 15000 -15000 0 -15000
0 0 -15000z m16160 12000 l0 -40 80 0 80 0 0 40 0 40 40 0 40 0 0 -40 0 -40
200 0 200 0 0 -40 0 -40 240 0 240 0 0 -40 0 -40 200 0 200 0 0 -40 0 -40 160
0 160 0 0 -40 0 -40 160 0 160 0 0 -40 0 -40 120 0 120 0 0 -40 0 -40 120 0
120 0 0 -40 0 -40 120 0 120 0 0 -40 0 -40 120 0 120 0 0 -40 0 -40 80 0 80 0
0 -40 0 -40 120 0 120 0 0 -40 0 -40 80 0 80 0 0 -40 0 -40 80 0 80 0 0 -40 0
-40 80 0 80 0 0 -40 0 -40 80 0 80 0 0 -40 0 -40 80 0 80 0 0 -40 0 -40 80 0
80 0 0 -40 0 -40 80 0 80 0 0 -40 0 -40 120 0 120 0 0 -40 0 -40 40 0 40 0 0
-40 0 -40 40 0 c31 0 40 -4 41 -17 0 -10 9 7 20 37 38 104 40 113 27 121 -7 5
-9 11 -5 16 5 4 12 1 18 -7 8 -13 10 -13 19 0 5 8 10 22 10 31 0 9 34 83 75
165 41 82 75 152 75 155 0 4 18 37 40 73 22 36 40 69 40 72 0 8 60 105 70 114
3 3 21 31 40 63 19 31 38 57 42 57 4 0 8 5 8 11 0 22 169 219 291 340 120 118
135 130 241 182 122 61 210 93 279 102 24 4 53 10 64 15 30 12 172 30 236 30
58 0 246 -22 339 -41 67 -13 211 -58 224 -70 6 -5 19 -9 30 -9 24 0 415 -193
442 -219 11 -9 27 -20 37 -24 53 -20 392 -245 444 -294 13 -13 27 -23 31 -23
4 0 21 -12 37 -28 17 -15 51 -43 76 -62 127 -97 246 -207 474 -435 235 -235
419 -431 515 -548 14 -17 44 -51 66 -76 36 -40 123 -143 262 -310 20 -25 53
-65 72 -90 19 -25 39 -51 45 -57 5 -6 24 -28 40 -49 27 -34 73 -93 147 -186
14 -19 40 -52 57 -74 17 -22 36 -46 43 -54 7 -8 29 -36 48 -62 29 -38 122
-161 165 -217 5 -7 18 -21 28 -30 9 -9 17 -22 17 -28 0 -7 4 -14 8 -16 5 -1
26 -28 48 -58 23 -30 79 -107 126 -171 47 -63 92 -126 99 -140 8 -13 18 -27
23 -30 5 -4 20 -25 35 -47 41 -63 114 -167 121 -172 3 -3 21 -30 40 -60 19
-30 40 -61 47 -68 7 -7 13 -17 13 -21 0 -4 9 -19 21 -32 27 -31 189 -296 189
-309 0 -6 3 -10 8 -10 4 0 16 -17 27 -37 11 -21 32 -58 46 -83 80 -134 241
-445 287 -555 19 -44 37 -84 41 -90 20 -27 64 -169 95 -310 36 -159 28 -429
-16 -580 -25 -85 -68 -185 -79 -185 -5 0 -9 -7 -9 -16 0 -30 -95 -144 -120
-144 -6 0 -10 -4 -10 -10 0 -5 -7 -10 -15 -10 -8 0 -15 -3 -15 -7 0 -9 -49
-33 -67 -33 -7 0 -13 -4 -13 -10 0 -5 -9 -10 -19 -10 -11 0 -22 -4 -25 -9 -6
-9 -98 -31 -213 -51 -84 -15 -257 -15 -329 0 -171 35 -214 45 -214 52 0 4 -7
8 -15 8 -30 0 -260 110 -292 140 -12 11 -25 20 -29 20 -3 0 -24 14 -46 32 -22
17 -55 41 -73 54 l-34 23 14 -32 c23 -54 58 -178 71 -257 7 -41 18 -96 24
-123 16 -63 10 -364 -8 -392 -6 -11 -17 -31 -22 -45 -6 -14 -25 -49 -44 -79
-18 -30 -31 -63 -28 -73 2 -10 1 -30 -2 -44 -7 -25 -10 -26 -54 -22 -26 3 -41
3 -34 1 7 -3 12 -22 12 -44 0 -39 0 -39 40 -39 l40 0 0 -80 0 -80 40 0 40 0 0
-120 0 -120 40 0 40 0 0 -80 0 -80 40 0 40 0 0 -120 0 -120 40 0 40 0 0 -120
0 -120 40 0 40 0 0 -120 0 -120 40 0 40 0 0 -120 0 -120 40 0 40 0 0 -160 0
-160 40 0 40 0 0 -160 0 -160 40 0 40 0 0 -200 0 -200 40 0 40 0 0 -200 0
-200 40 0 40 0 0 -200 0 -200 40 0 40 0 0 -40 0 -40 -40 0 -40 0 0 -80 0 -80
40 0 40 0 0 -1200 0 -1200 -40 0 -40 0 0 -360 0 -360 -40 0 -40 0 0 -40 0 -40
40 0 40 0 0 -40 0 -40 -40 0 -40 0 0 -120 0 -120 -40 0 -40 0 0 -200 0 -200
-40 0 -40 0 0 -160 0 -160 -40 0 -40 0 0 -160 0 -160 -40 0 -40 0 0 -120 0
-120 -40 0 -40 0 0 -120 0 -120 -40 0 -40 0 0 -120 0 -120 -40 0 -40 0 0 -120
0 -120 -40 0 -40 0 0 -120 0 -120 -40 0 -40 0 0 -80 0 -80 -40 0 -40 0 0 -80
0 -80 -40 0 -40 0 0 -120 0 -120 -40 0 -40 0 0 -80 0 -80 -39 0 c-33 0 -40 4
-43 23 -2 12 -3 -40 -4 -115 0 -133 -6 -167 -23 -139 -6 10 -12 3 -21 -23 -13
-41 -30 -48 -30 -11 0 14 4 25 9 25 5 0 12 35 16 78 4 42 11 80 16 83 5 3 11
38 14 78 2 40 7 76 10 81 3 4 10 46 15 92 25 206 29 228 42 228 7 0 9 -19 5
-57 -3 -35 -2 -50 3 -38 12 28 12 93 0 100 -13 8 -13 78 0 146 6 30 13 90 16
134 2 44 9 114 15 155 14 110 39 386 47 530 11 190 6 994 -7 1180 -26 358 -59
681 -89 870 -6 36 -16 103 -22 150 -7 47 -20 131 -31 188 -10 57 -19 114 -19
128 0 13 -4 32 -9 42 -5 9 -21 82 -36 162 -15 80 -58 264 -95 410 -97 382
-114 441 -222 765 -44 132 -86 254 -93 270 -7 17 -21 53 -30 80 -9 28 -23 64
-31 82 -8 17 -14 38 -14 47 0 9 -4 16 -10 16 -5 0 -10 7 -10 15 0 8 -7 31 -16
52 -9 21 -20 47 -25 58 -4 11 -22 54 -38 95 -17 41 -31 80 -31 87 0 7 -4 13
-10 13 -5 0 -10 6 -10 14 0 8 -13 41 -30 73 -16 32 -63 130 -105 218 -41 88
-79 167 -85 175 -5 8 -25 44 -43 80 -70 134 -82 155 -89 158 -5 2 -8 8 -8 13
0 5 -27 54 -60 110 -33 55 -60 105 -60 109 0 5 -4 10 -8 12 -10 4 -72 105 -72
118 0 6 -4 10 -10 10 -5 0 -10 7 -10 15 0 8 -3 15 -8 15 -4 0 -12 9 -17 20 -6
11 -38 60 -72 110 -35 50 -63 95 -63 101 0 5 -4 9 -8 9 -5 0 -13 8 -18 19 -5
10 -19 32 -32 47 -13 16 -44 59 -70 95 -54 76 -156 211 -175 231 -7 7 -42 52
-79 99 -37 47 -82 101 -100 120 -18 19 -50 57 -71 84 -20 27 -61 76 -90 109
-73 84 -703 716 -714 716 -5 0 -25 16 -45 35 l-36 35 -5 -377 c-4 -370 -16
-531 -48 -668 -12 -51 -60 -132 -88 -150 -122 -76 -366 -18 -506 119 -96 94
-241 304 -364 526 -61 109 -217 430 -258 529 -19 47 -43 104 -53 126 -19 41
-69 190 -88 260 -12 41 -77 335 -92 415 -10 50 -66 305 -80 360 -4 19 -15 68
-24 108 -9 40 -24 94 -32 120 -9 26 -23 79 -30 117 -7 39 -18 90 -24 115 -6
25 -13 62 -17 83 -3 20 -10 37 -14 37 -12 0 -11 -6 7 -75 8 -33 22 -91 29
-130 8 -38 19 -92 24 -119 6 -27 9 -51 6 -54 -5 -5 -97 54 -215 137 -36 25
-74 51 -85 58 -43 26 -211 133 -220 140 -5 5 -36 24 -67 43 -32 19 -58 38 -58
42 0 4 -8 8 -18 8 -10 0 -22 4 -28 9 -5 5 -26 19 -46 30 -48 27 -94 53 -138
79 -19 11 -64 37 -100 56 -87 48 -708 358 -790 395 -36 15 -90 40 -120 54
-106 48 -256 114 -315 138 -33 13 -95 41 -138 61 -43 21 -83 38 -90 38 -7 0
-17 4 -22 9 -6 4 -46 23 -90 41 -44 18 -102 43 -130 55 -106 48 -142 64 -200
88 -33 14 -109 46 -170 72 -60 25 -184 75 -275 111 -91 35 -188 73 -215 84
-28 11 -56 20 -63 20 -6 0 -12 5 -12 10 0 6 -7 10 -15 10 -14 0 -176 52 -220
70 -39 16 -215 70 -229 70 -8 0 -16 3 -18 8 -1 4 -46 18 -98 31 -52 13 -122
32 -155 41 -89 27 -345 88 -465 111 -58 11 -152 29 -210 41 -58 11 -134 24
-170 29 -36 4 -117 15 -180 24 -497 70 -1126 100 -1750 85 -382 -9 -802 -30
-810 -40 -3 -4 -50 -10 -105 -13 -75 -4 -115 -12 -160 -31 -33 -14 -77 -26
-97 -26 -21 0 -38 -4 -38 -9 0 -9 -78 -27 -181 -40 -37 -5 -76 -14 -87 -20
-12 -6 -32 -11 -45 -11 -14 0 -40 -6 -59 -14 -18 -8 -63 -18 -98 -22 -36 -3
-96 -13 -135 -21 -38 -8 -96 -18 -128 -22 -32 -4 -61 -12 -65 -18 -4 -6 -58
-18 -121 -27 -63 -9 -120 -21 -125 -25 -6 -5 -27 -11 -46 -14 -64 -10 -234
-48 -281 -62 -26 -8 -65 -15 -87 -15 -22 0 -47 -6 -54 -13 -7 -7 -46 -19 -86
-25 -41 -7 -87 -19 -103 -27 -15 -8 -40 -15 -54 -15 -15 0 -34 -4 -44 -10 -10
-5 -50 -16 -90 -24 -40 -8 -86 -22 -103 -31 -17 -8 -40 -15 -51 -15 -19 0 -65
-12 -112 -30 -11 -5 -53 -14 -92 -21 -40 -7 -73 -15 -73 -19 0 -4 -18 -10 -40
-14 -22 -3 -40 -10 -40 -14 0 -5 -36 -16 -80 -26 -44 -9 -80 -21 -80 -26 0 -6
-9 -10 -20 -10 -12 0 -31 -7 -43 -15 -13 -8 -47 -19 -77 -25 -29 -6 -61 -17
-70 -25 -9 -8 -26 -15 -37 -15 -11 0 -33 -6 -49 -14 -16 -8 -51 -21 -79 -27
-27 -7 -57 -18 -65 -25 -16 -12 -169 -69 -235 -86 -22 -6 -42 -14 -45 -18 -3
-4 -33 -18 -68 -30 -34 -13 -65 -27 -68 -31 -3 -5 -14 -9 -24 -9 -10 0 -31 -7
-47 -15 -44 -23 -158 -65 -176 -65 -9 0 -17 -4 -17 -9 0 -4 -25 -16 -56 -26
-31 -9 -80 -30 -110 -46 -29 -16 -62 -29 -72 -29 -10 0 -22 -4 -27 -9 -6 -5
-41 -21 -80 -36 -77 -30 -138 -56 -201 -86 -22 -10 -44 -19 -48 -19 -5 0 -35
-13 -67 -30 -33 -16 -60 -29 -62 -29 -2 1 -89 -37 -182 -81 -124 -58 -372
-184 -479 -244 -61 -34 -118 -65 -126 -69 -8 -4 -44 -25 -79 -47 -34 -22 -67
-40 -71 -40 -4 0 -13 -6 -19 -14 -7 -8 -44 -34 -84 -57 -70 -41 -82 -50 -112
-76 -7 -7 -18 -13 -24 -13 -5 0 -21 -10 -34 -22 -13 -13 -48 -39 -76 -58 -29
-19 -58 -40 -64 -45 -7 -6 -28 -22 -47 -35 -19 -13 -44 -32 -54 -42 -11 -10
-23 -18 -28 -18 -16 0 -8 -34 15 -64 13 -17 26 -36 28 -42 4 -12 89 -111 149
-174 19 -20 61 -66 94 -101 32 -35 174 -183 315 -329 215 -222 353 -366 406
-424 6 -6 22 -27 35 -46 13 -19 27 -37 30 -40 42 -38 78 -189 79 -328 2 -221
-19 -390 -144 -1152 -43 -260 -112 -634 -155 -840 -17 -80 -37 -181 -46 -225
-9 -44 -37 -172 -64 -285 -26 -113 -51 -221 -55 -240 -3 -19 -10 -44 -15 -55
-5 -11 -23 -78 -40 -150 -31 -127 -117 -431 -144 -510 -8 -22 -31 -94 -51
-160 -20 -66 -43 -136 -50 -155 -7 -19 -27 -75 -45 -125 -17 -49 -44 -121 -59
-160 -15 -38 -41 -110 -57 -160 -16 -49 -32 -91 -36 -93 -5 -2 -8 -8 -8 -14 0
-13 -41 -117 -105 -268 -13 -30 -26 -62 -29 -70 -3 -8 -10 -22 -15 -30 -5 -8
-19 -40 -31 -70 -110 -273 -496 -1033 -532 -1048 -4 -2 -8 -10 -8 -17 0 -7
-20 -44 -45 -81 -25 -36 -45 -69 -45 -72 0 -3 -11 -20 -25 -38 -14 -18 -25
-36 -25 -39 0 -3 -11 -21 -25 -39 -14 -18 -25 -36 -25 -39 0 -16 -72 -106 -83
-103 -7 1 -9 1 -4 -1 4 -3 7 -9 7 -15 0 -14 -90 -128 -101 -128 -6 0 -7 -5 -3
-12 4 -6 0 -16 -8 -22 -8 -6 -20 -22 -27 -35 -10 -19 -15 -21 -22 -10 -6 10
-9 6 -9 -13 0 -19 -4 -26 -13 -22 -8 3 -18 -6 -25 -21 -6 -14 -16 -25 -21 -25
-14 0 -41 -29 -41 -43 0 -7 4 -6 10 3 5 8 12 11 16 7 10 -10 -15 -37 -30 -31
-8 3 -51 -31 -97 -75 -122 -118 -141 -134 -182 -156 -20 -11 -37 -23 -37 -27
0 -5 -12 -8 -27 -8 -14 0 -23 -3 -20 -7 8 -8 -23 -32 -43 -33 -8 0 -26 -9 -40
-20 -14 -11 -32 -20 -42 -20 -9 0 -18 -3 -20 -8 -3 -7 -33 -17 -203 -68 -177
-52 -458 -13 -670 93 -147 75 -292 200 -405 352 -57 77 -76 88 -66 41 5 -28 8
-63 21 -245 2 -33 6 -78 9 -100 2 -22 7 -74 11 -115 3 -41 14 -140 25 -220 11
-80 25 -179 31 -220 5 -41 19 -124 30 -185 11 -60 23 -126 25 -145 3 -19 12
-62 19 -95 8 -33 17 -82 20 -110 8 -65 10 -75 23 -108 7 -16 12 -33 12 -40 0
-15 28 -134 41 -174 5 -18 14 -54 19 -80 14 -75 30 -137 39 -143 4 -3 13 -36
20 -74 6 -38 19 -82 27 -97 7 -15 14 -39 14 -53 0 -13 6 -31 14 -38 7 -8 16
-27 19 -43 10 -57 56 -196 66 -205 3 -3 7 -21 8 -40 2 -19 7 -36 13 -38 5 -2
10 -11 10 -19 0 -22 42 -137 52 -141 4 -2 8 -16 8 -31 0 -15 7 -36 15 -47 8
-10 17 -40 21 -66 4 -26 15 -55 25 -64 11 -9 19 -27 19 -38 0 -12 11 -43 25
-71 13 -27 25 -57 25 -66 0 -9 6 -19 13 -22 7 -2 13 -17 15 -33 1 -15 7 -33
12 -38 6 -6 10 -18 10 -29 0 -10 7 -25 15 -33 8 -9 15 -24 15 -35 0 -11 10
-33 21 -49 12 -16 19 -35 16 -43 -3 -9 1 -18 9 -21 8 -3 14 -12 14 -21 0 -8 4
-15 9 -15 5 0 11 -18 15 -40 3 -22 10 -40 15 -40 5 0 11 -13 14 -29 3 -16 12
-35 19 -42 13 -14 78 -142 78 -154 0 -3 -5 -3 -10 0 -6 3 -10 1 -10 -5 0 -7 6
-10 14 -7 10 4 27 -21 56 -79 23 -46 46 -84 51 -84 5 0 9 -6 9 -14 0 -23 83
-190 106 -213 24 -24 16 -26 -20 -3 -33 20 -35 20 -46 3 -9 -14 -10 -7 -7 37
3 30 3 49 0 43 -3 -8 -22 -13 -45 -13 l-40 0 3 42 4 43 -42 -4 -43 -3 0 81 0
81 -40 0 -40 0 0 40 0 40 -40 0 -40 0 0 80 0 80 -40 0 -40 0 0 40 0 40 -40 0
-40 0 0 40 0 40 -40 0 -40 0 0 120 0 120 -40 0 -40 0 0 40 0 40 -40 0 -40 0 0
40 0 40 -40 0 -40 0 0 120 0 120 -40 0 -40 0 0 80 0 80 -40 0 -40 0 0 80 0 80
-40 0 -40 0 0 80 0 80 -40 0 -40 0 0 80 0 80 -40 0 -40 0 0 80 0 80 -40 0 -40
0 0 80 0 80 -40 0 -40 0 0 80 0 80 -40 0 -40 0 0 120 0 120 -40 0 -40 0 0 80
0 80 -40 0 -40 0 0 120 0 120 -40 0 -40 0 0 120 0 120 -40 0 -40 0 0 120 0
120 -40 0 -40 0 0 120 0 120 -40 0 -40 0 0 200 0 200 -40 0 -40 0 0 120 0 120
-40 0 -40 0 0 240 0 240 -40 0 -40 0 0 240 0 240 -40 0 -40 0 0 160 0 160 -40
0 -40 0 0 40 0 40 40 0 40 0 0 80 0 80 -40 0 -40 0 0 1120 0 1120 40 0 40 0 0
320 0 320 40 0 40 0 0 280 0 280 40 0 40 0 0 160 0 160 40 0 40 0 0 200 0 200
40 0 40 0 0 120 0 120 40 0 40 0 0 160 0 160 40 0 40 0 0 120 0 120 40 0 40 0
0 120 0 120 40 0 40 0 0 80 0 80 40 0 40 0 0 120 0 120 40 0 40 0 0 120 0 120
40 0 40 0 0 80 0 80 40 0 40 0 0 80 0 80 40 0 40 0 0 80 0 80 40 0 40 0 0 80
0 80 40 0 40 0 0 80 0 80 40 0 40 0 0 80 0 80 40 0 40 0 0 80 0 80 40 0 40 0
0 80 0 80 40 0 40 0 0 80 0 80 40 0 40 0 0 40 0 40 40 0 40 0 0 80 0 80 40 0
40 0 0 80 0 80 40 0 40 0 0 80 0 80 40 0 40 0 0 40 0 40 40 0 40 0 0 40 0 40
40 0 40 0 0 40 0 40 40 0 40 0 0 80 0 80 40 0 40 0 0 40 0 40 40 0 40 0 0 80
0 80 40 0 40 0 0 40 0 40 40 0 40 0 0 40 0 40 40 0 40 0 0 40 0 40 40 0 40 0
0 80 0 80 40 0 40 0 0 40 0 40 40 0 40 0 0 40 0 40 40 0 40 0 0 40 0 40 40 0
40 0 0 40 0 40 40 0 40 0 0 40 0 40 40 0 40 0 0 40 0 40 40 0 40 0 0 40 0 40
40 0 40 0 0 40 0 40 40 0 40 0 0 80 0 80 40 0 40 0 0 40 0 40 80 0 80 0 0 40
0 40 40 0 40 0 0 40 0 40 40 0 40 0 0 40 0 40 40 0 40 0 0 40 0 40 40 0 40 0
0 40 0 40 40 0 40 0 0 40 0 40 40 0 40 0 0 40 0 40 40 0 40 0 0 40 0 40 40 0
40 0 0 40 0 40 80 0 80 0 0 40 0 40 40 0 40 0 0 40 0 40 40 0 40 0 0 40 0 40
40 0 40 0 0 40 0 40 80 0 80 0 0 40 0 40 40 0 40 0 0 40 0 40 80 0 80 0 0 40
0 40 40 0 40 0 0 40 0 40 40 0 40 0 0 40 0 40 40 0 40 0 0 40 0 40 80 0 80 0
0 40 0 40 80 0 80 0 0 40 0 40 80 0 80 0 0 40 0 40 40 0 40 0 0 40 0 40 80 0
80 0 0 40 0 40 80 0 80 0 0 40 0 40 80 0 80 0 0 40 0 40 80 0 80 0 0 40 0 40
80 0 80 0 0 40 0 40 80 0 80 0 0 40 0 40 80 0 80 0 0 40 0 40 80 0 80 0 0 40
0 40 80 0 80 0 0 40 0 40 120 0 120 0 0 40 0 40 120 0 120 0 0 40 0 40 80 0
80 0 0 40 0 40 120 0 120 0 0 40 0 40 120 0 120 0 0 40 0 40 160 0 160 0 0 40
0 40 120 0 120 0 0 40 0 40 200 0 200 0 0 40 0 40 160 0 160 0 0 40 0 40 240
0 240 0 0 40 0 40 360 0 360 0 0 40 0 40 1120 0 1120 0 0 -40z m5250 -1164 c0
-3 -4 -8 -10 -11 -5 -3 -10 -1 -10 4 0 6 5 11 10 11 6 0 10 -2 10 -4z m-20
-36 c0 -5 -4 -10 -10 -10 -5 0 -10 5 -10 10 0 6 5 10 10 10 6 0 10 -4 10 -10z
m-160 -334 c-1 -29 -1 -30 -15 -12 -8 11 -15 31 -15 44 0 21 2 22 15 12 8 -7
15 -27 15 -44z m-23 -48 c-3 -8 -6 -5 -6 6 -1 11 2 17 5 13 3 -3 4 -12 1 -19z
m-5382 -3644 c407 -76 1134 -288 1450 -424 11 -5 79 -33 150 -63 193 -82 496
-227 636 -305 19 -10 66 -36 104 -57 39 -21 103 -58 142 -82 40 -24 77 -43 83
-43 5 0 10 -3 10 -8 0 -4 17 -16 38 -27 20 -10 44 -25 52 -31 8 -7 26 -19 40
-26 86 -46 462 -309 655 -458 74 -58 152 -118 173 -133 20 -16 48 -38 62 -50
14 -12 50 -42 80 -67 30 -24 73 -60 95 -80 22 -19 64 -55 94 -80 269 -226 850
-795 1062 -1041 11 -13 33 -37 47 -54 32 -36 172 -196 213 -244 16 -19 29 -36
29 -38 0 -2 17 -22 37 -44 21 -22 52 -61 70 -87 19 -25 37 -49 41 -52 4 -3 23
-25 42 -50 19 -25 37 -47 40 -50 4 -3 21 -26 39 -52 17 -27 36 -48 41 -48 6 0
10 -5 10 -10 0 -6 33 -54 74 -108 72 -95 128 -173 242 -340 31 -46 63 -89 70
-97 8 -7 14 -17 14 -21 0 -4 11 -22 25 -40 14 -18 25 -35 25 -37 0 -3 24 -41
53 -84 72 -108 244 -386 264 -428 9 -19 20 -35 25 -35 4 0 8 -5 8 -10 0 -6 20
-44 45 -84 25 -41 45 -77 45 -79 0 -3 17 -36 39 -74 105 -186 391 -756 391
-779 0 -2 11 -28 25 -58 14 -30 25 -57 25 -60 0 -3 15 -38 34 -78 48 -104 256
-646 256 -668 0 -6 4 -18 10 -28 11 -21 70 -213 70 -230 0 -7 4 -12 9 -12 5 0
11 -19 15 -42 4 -23 22 -94 41 -158 19 -64 41 -145 49 -181 8 -35 20 -84 26
-109 7 -25 27 -119 46 -210 162 -777 197 -1528 105 -2210 -20 -144 -77 -439
-105 -535 -8 -27 -26 -93 -41 -145 -14 -52 -42 -138 -62 -190 -19 -52 -42
-113 -50 -135 -8 -22 -25 -63 -38 -90 -13 -28 -27 -63 -30 -78 -4 -15 -11 -30
-16 -33 -5 -3 -9 -14 -9 -24 0 -10 -4 -20 -8 -22 -5 -1 -42 -66 -82 -143 -40
-77 -88 -161 -106 -188 -19 -26 -34 -50 -34 -54 0 -4 -8 -16 -19 -27 -10 -12
-49 -66 -86 -121 -37 -55 -71 -102 -74 -105 -3 -3 -21 -23 -40 -45 -122 -144
-227 -254 -317 -331 -207 -179 -248 -210 -427 -325 -170 -108 -178 -113 -312
-175 -55 -26 -137 -64 -183 -85 -45 -22 -86 -39 -90 -39 -9 0 -185 -54 -292
-90 -47 -16 -132 -36 -190 -46 -58 -9 -125 -20 -150 -25 -234 -44 -681 -58
-940 -31 -190 21 -386 50 -475 72 -44 10 -120 29 -170 40 -150 35 -548 165
-662 216 -17 8 -36 14 -43 14 -7 0 -24 6 -38 14 -38 20 -117 56 -124 56 -11 0
-260 116 -318 149 -8 4 -67 33 -130 65 -63 31 -131 66 -150 78 -19 12 -55 32
-80 45 -25 12 -70 37 -100 55 -30 18 -79 47 -108 63 -144 82 -266 155 -258
155 5 0 -18 14 -50 31 -32 18 -93 54 -134 82 -41 28 -104 70 -140 94 -36 23
-72 47 -80 53 -17 11 -202 141 -239 167 -55 39 -147 108 -157 118 -29 25 -55
45 -60 45 -3 0 -19 13 -37 30 -18 16 -37 30 -44 30 -6 0 -13 4 -15 8 -2 7 -70
63 -153 129 -45 37 -211 177 -220 188 -5 6 -17 16 -26 21 -14 8 -50 39 -174
149 -12 11 -46 40 -75 65 -29 25 -64 56 -79 70 -14 14 -78 73 -141 130 -226
206 -635 613 -870 866 -88 94 -282 313 -340 384 -30 36 -57 67 -60 70 -16 12
-159 189 -293 361 -157 203 -230 302 -347 471 -46 68 -88 125 -92 126 -4 2 -8
8 -8 13 0 5 -22 41 -49 81 -70 105 -283 445 -312 498 -13 25 -27 47 -30 50 -4
4 -79 133 -157 270 -14 25 -44 77 -66 115 -23 39 -52 93 -66 120 -14 28 -27
52 -30 55 -3 3 -25 42 -49 88 -67 131 -76 147 -81 152 -6 6 -153 303 -203 410
-93 200 -182 405 -242 560 -20 52 -48 124 -62 160 -14 36 -36 97 -50 135 -13
39 -28 79 -33 90 -4 11 -22 65 -40 120 -17 55 -35 109 -40 120 -13 32 -90 289
-127 425 -172 639 -268 1397 -219 1730 32 218 72 338 180 545 171 328 420 597
896 968 9 7 78 59 155 117 77 57 142 107 145 110 3 3 21 17 40 30 19 13 67 47
105 75 39 29 129 92 200 140 72 49 132 92 135 95 3 3 55 38 115 78 61 39 115
76 122 81 7 6 14 11 17 11 3 0 45 26 93 58 77 51 362 223 463 279 19 11 87 48
150 83 63 35 142 79 175 97 153 86 481 244 580 281 167 62 248 81 490 116 57
8 340 -6 420 -20z m10384 -1176 c-1 -37 -2 -39 -9 -18 -12 36 -12 60 0 60 6 0
10 -19 9 -42z m28 5 c-3 -10 -5 -4 -5 12 0 17 2 24 5 18 2 -7 2 -21 0 -30z
m-7 -259 c0 -13 -4 -24 -10 -24 -5 0 -10 14 -10 31 0 17 4 28 10 24 6 -3 10
-17 10 -31z m-11 -139 c-5 -13 -8 0 -7 40 0 56 1 58 8 20 4 -22 4 -49 -1 -60z
m-59 -161 c0 -17 -22 -14 -28 4 -2 7 3 12 12 12 9 0 16 -7 16 -16z m-406
-10702 c-4 -34 -10 -62 -14 -62 -4 0 -3 21 1 48 4 26 8 56 8 66 1 11 3 17 6
14 3 -2 2 -32 -1 -66z m3 -174 c-3 -7 -5 -2 -5 12 0 14 2 19 5 13 2 -7 2 -19
0 -25z m-33 -46 c-8 -2 -14 -13 -14 -24 0 -12 -2 -19 -5 -17 -2 3 -2 30 2 59
l6 55 12 -35 c10 -28 10 -36 -1 -38z m26 -52 c0 -16 -4 -30 -10 -30 -11 0 -14
43 -3 53 11 12 13 8 13 -23z m-77 -179 c2 -10 1 -25 -4 -32 -6 -10 -9 -4 -9
19 0 36 5 42 13 13z m-17 -88 c-11 -11 -17 4 -9 23 7 18 8 18 11 1 2 -10 1
-21 -2 -24z m16 -83 c8 -6 -9 -80 -19 -80 -3 0 -3 18 1 40 5 32 3 40 -9 40 -9
0 -15 -9 -15 -22 0 -12 -3 -18 -7 -15 -3 4 0 26 7 48 14 40 14 41 24 18 6 -13
14 -26 18 -29z m-82 -230 c0 -5 -5 -10 -11 -10 -5 0 -7 5 -4 10 3 6 8 10 11
10 2 0 4 -4 4 -10z m-29 -135 l-9 -40 -1 35 c0 19 2 46 6 60 12 41 16 -7 4
-55z m-16778 25 c23 -11 54 -32 69 -45 51 -44 98 -141 112 -230 3 -16 9 -50
15 -75 16 -69 13 -220 -4 -253 -8 -15 -12 -33 -9 -40 2 -7 -11 -28 -30 -46
-65 -63 -169 -59 -263 10 -82 61 -150 173 -177 293 -27 115 -16 204 38 303 51
94 154 128 249 83z m16717 -280 c0 -11 -4 -20 -9 -20 -5 0 -7 9 -4 20 3 11 7
20 9 20 2 0 4 -9 4 -20z m17 -42 c-3 -8 -6 -5 -6 6 -1 11 2 17 5 13 3 -3 4
-12 1 -19z m-27 -44 c0 -8 -4 -12 -10 -9 -5 3 -10 10 -10 16 0 5 5 9 10 9 6 0
10 -7 10 -16z m-20066 -278 c18 -29 37 -62 40 -73 4 -12 17 -32 29 -45 12 -13
30 -41 39 -61 10 -20 21 -37 25 -37 12 0 35 -58 28 -70 -11 -18 -25 -11 -25
13 0 38 -14 41 -27 5 l-13 -33 3 45 2 45 -42 -4 -43 -3 0 55 c0 35 5 57 13 60
10 4 10 7 0 18 -7 7 -13 21 -13 31 0 21 -11 23 -28 6 -9 -9 -12 -9 -12 0 0 7
-9 12 -20 12 -17 0 -20 7 -20 43 0 74 13 72 64 -7z m19993 32 c-3 -8 -6 -5 -6
6 -1 11 2 17 5 13 3 -3 4 -12 1 -19z m-18106 -390 c52 -55 134 -140 183 -187
49 -47 117 -114 151 -147 35 -34 92 -86 127 -115 35 -30 70 -61 78 -69 13 -13
144 -121 190 -157 8 -6 56 -45 105 -85 50 -41 113 -90 140 -109 28 -19 52 -36
55 -40 3 -3 25 -19 50 -35 44 -30 125 -85 305 -210 96 -67 333 -214 343 -214
4 0 27 -14 52 -30 129 -87 748 -415 970 -513 19 -9 60 -27 90 -40 31 -14 96
-41 145 -62 50 -20 113 -47 140 -59 28 -13 100 -42 160 -66 61 -23 121 -48
135 -55 14 -7 66 -27 115 -43 50 -17 176 -61 280 -97 355 -124 360 -125 695
-216 80 -22 208 -55 285 -75 234 -59 226 -56 219 -79 -4 -11 -10 -22 -14 -25
-13 -10 -51 -177 -65 -291 -36 -281 -55 -494 -70 -750 -8 -152 -15 -288 -15
-303 0 -26 0 -26 -80 -26 l-80 0 0 40 0 40 -160 0 -160 0 0 40 0 40 -120 0
-120 0 0 40 0 40 -120 0 -120 0 0 40 0 40 -120 0 -120 0 0 40 0 40 -120 0
-120 0 0 40 0 40 -80 0 -80 0 0 40 0 40 -120 0 -120 0 0 40 0 40 -80 0 -80 0
0 40 0 40 -80 0 -80 0 0 40 0 40 -120 0 -120 0 0 40 0 40 -80 0 -80 0 0 40 0
40 -80 0 -80 0 0 40 0 40 -80 0 -80 0 0 40 0 40 -40 0 -40 0 0 40 0 40 -80 0
-80 0 0 40 0 40 -80 0 -80 0 0 40 0 40 -80 0 -80 0 0 40 0 40 -40 0 -40 0 0
40 0 40 -80 0 -80 0 0 40 0 40 -40 0 -40 0 0 40 0 40 -80 0 -80 0 0 40 0 40
-40 0 -40 0 0 40 0 40 -80 0 -80 0 0 40 0 40 -40 0 -40 0 0 40 0 40 -40 0 -40
0 0 40 0 40 -80 0 -80 0 0 40 0 40 -40 0 -40 0 0 40 0 40 -40 0 -40 0 0 40 0
40 -80 0 -80 0 0 40 0 40 -40 0 -40 0 0 40 0 40 -40 0 -40 0 0 40 0 40 -40 0
-40 0 0 40 0 40 -40 0 -40 0 0 40 0 40 -40 0 -40 0 0 40 0 40 -40 0 -40 0 0
40 0 40 -80 0 -80 0 0 40 0 40 -40 0 -40 0 0 40 0 40 -40 0 -40 0 0 40 0 40
-41 0 -41 0 4 45 c2 25 0 45 -4 45 -4 0 -5 7 -2 15 5 11 -1 15 -25 15 -16 0
-50 11 -74 24 -26 15 -54 23 -68 20 -13 -2 -18 -1 -11 2 10 5 10 9 1 20 -10
12 -15 12 -35 -1 -24 -15 -24 -15 -24 25 0 39 1 40 21 28 12 -7 30 -18 42 -25
11 -6 23 -17 27 -24 12 -18 77 -40 160 -53 105 -17 158 4 257 99 40 38 73 73
73 77 0 4 14 27 30 51 17 25 30 49 30 55 0 5 7 12 15 16 8 3 15 13 15 22 0 9
8 28 19 42 10 15 21 39 25 55 3 15 10 27 15 27 5 0 12 14 16 30 4 17 10 30 14
30 3 0 15 23 26 51 11 28 26 55 33 61 6 6 12 17 12 25 0 8 9 31 20 51 37 70
110 230 110 241 0 24 21 7 111 -91z m-1691 38 c0 -8 7 -19 15 -26 8 -7 15 -25
15 -40 0 -65 -34 -32 -45 44 -6 36 -5 47 4 42 6 -4 11 -13 11 -20z m81 -164
c5 -13 13 -20 19 -17 5 3 14 -4 20 -15 9 -17 8 -20 -10 -20 -29 0 -50 23 -50
54 0 14 -4 26 -10 26 -12 0 -14 43 -2 54 4 4 11 -7 15 -26 5 -18 13 -43 18
-56z m5733 -82 c18 0 86 -56 86 -72 0 -10 6 -15 18 -11 20 5 79 -49 157 -142
27 -33 52 -62 55 -65 14 -14 40 -71 40 -88 0 -12 5 -24 10 -27 6 -3 10 -11 10
-18 0 -6 -7 -2 -15 9 -13 17 -14 14 -10 -36 4 -44 3 -49 -4 -22 -10 40 -27 58
-17 20 9 -41 -2 -58 -39 -58 -25 0 -42 -10 -71 -39 l-39 -38 -65 8 c-37 5 -77
18 -92 29 -30 22 -53 27 -42 9 4 -7 1 -10 -7 -7 -8 3 -13 14 -11 25 2 13 -6
23 -22 31 -18 8 -24 16 -19 28 5 13 3 16 -10 11 -11 -4 -17 -1 -17 8 0 7 -11
22 -25 33 -14 11 -25 25 -25 31 0 6 -4 11 -8 11 -5 0 -17 18 -27 40 -10 22
-24 40 -30 40 -7 0 -16 8 -19 18 -17 44 -32 62 -53 62 -20 0 -23 5 -23 39 0
36 -3 41 -40 58 -36 17 -52 33 -31 33 31 0 71 -15 71 -26 0 -8 3 -13 8 -13 21
4 72 -15 72 -27 0 -8 3 -14 8 -14 4 0 23 -15 43 -33 44 -39 94 -69 103 -60 3
3 6 1 6 -6 0 -6 18 -31 40 -53 22 -23 40 -46 40 -50 0 -4 4 -8 10 -8 5 0 25
-16 44 -35 19 -19 47 -37 63 -41 15 -4 31 -12 35 -18 4 -6 8 6 8 26 0 27 -5
40 -20 48 -10 6 -17 17 -14 24 6 17 -22 76 -36 76 -6 0 -10 -5 -10 -12 0 -24
-20 8 -22 35 -1 15 -6 27 -10 27 -4 0 -5 7 -2 15 5 11 -1 15 -20 15 -19 0 -26
5 -26 19 0 10 -7 24 -15 31 -8 7 -15 16 -15 21 0 5 7 9 15 9 11 0 15 11 15 39
0 33 -4 40 -22 44 -13 2 -6 3 15 0 46 -4 42 11 -10 32 -44 18 -43 18 -43 0 0
-8 -4 -15 -10 -15 -5 0 -10 7 -10 15 0 8 5 15 11 15 6 0 9 6 6 14 -9 24 5 27
28 6 12 -11 25 -20 29 -20z m-5661 15 c4 -8 2 -17 -3 -20 -6 -4 -10 3 -10 14
0 25 6 27 13 6z m33 -50 c4 -8 12 -15 20 -15 8 0 14 -5 14 -12 0 -6 10 -25 23
-42 32 -44 46 -81 37 -96 -10 -15 -30 17 -30 48 0 11 -7 22 -15 26 -8 3 -15
11 -15 19 0 7 -15 26 -34 42 -19 16 -33 33 -30 37 8 13 24 9 30 -7z m5554 -25
c0 -5 -2 -10 -4 -10 -3 0 -8 5 -11 10 -3 6 -1 10 4 10 6 0 11 -4 11 -10z
m-5500 -137 c0 -7 -4 -13 -10 -13 -5 0 -10 12 -10 28 0 21 2 24 10 12 5 -8 10
-21 10 -27z m67 -25 c-3 -8 -6 -5 -6 6 -1 11 2 17 5 13 3 -3 4 -12 1 -19z m40
-34 c7 -18 -11 -39 -25 -30 -12 7 -4 46 9 46 6 0 12 -7 16 -16z m33 -24 c0 -5
-4 -10 -10 -10 -5 0 -10 5 -10 10 0 6 5 10 10 10 6 0 10 -4 10 -10z m16 -69
c4 -11 8 -10 18 5 8 10 18 16 22 11 9 -9 -26 -38 -41 -33 -5 1 -11 16 -12 32
-2 27 1 23 13 -15z m104 -62 c32 -32 49 -57 47 -68 -3 -11 -5 -9 -6 7 -1 15
-7 22 -22 22 -36 0 -59 19 -59 50 0 15 -6 31 -12 33 -7 3 -10 6 -6 6 4 1 30
-22 58 -50z m100 -99 c12 -23 5 -26 -16 -6 -16 17 -18 26 -4 26 5 0 14 -9 20
-20z m219 -157 c23 -6 23 -7 5 -14 -33 -13 -54 -10 -48 6 7 17 9 17 43 8z
m15899 -630 c15 -16 40 -47 56 -70 16 -24 33 -43 37 -43 5 0 9 -7 9 -15 0 -8
5 -15 10 -15 6 0 10 -7 10 -15 0 -8 5 -15 10 -15 6 0 10 -7 10 -15 0 -8 14
-38 31 -66 28 -45 30 -53 19 -75 -8 -13 -19 -24 -27 -24 -15 0 -18 36 -3 45 6
3 9 14 9 23 -1 15 -2 15 -6 0 -2 -10 -9 -18 -14 -18 -5 0 -9 -11 -9 -25 0 -22
-4 -25 -40 -25 l-40 0 0 -40 0 -40 -40 0 -40 0 0 -40 0 -40 -40 0 -40 0 0 -40
0 -40 -80 0 -80 0 0 -40 0 -40 -40 0 -40 0 0 -40 0 -40 -80 0 -80 0 0 -40 0
-40 -40 0 -40 0 0 -40 0 -40 -80 0 -80 0 0 -40 0 -40 -40 0 -40 0 0 -40 0 -40
-80 0 -80 0 0 -40 0 -40 -40 0 -40 0 0 -40 0 -40 -80 0 -80 0 0 -40 0 -40 -80
0 -80 0 0 -40 0 -40 -80 0 -80 0 0 -40 0 -40 -40 0 -40 0 0 -40 0 -40 -80 0
-80 0 0 -40 0 -40 -80 0 -80 0 0 -40 0 -40 -80 0 -80 0 0 -40 0 -40 -80 0 -80
0 0 -40 0 -40 -120 0 -120 0 0 -40 0 -40 -80 0 -80 0 0 -40 0 -40 -80 0 -80 0
0 -40 0 -40 -120 0 -120 0 0 -40 0 -40 -120 0 -120 0 0 -40 0 -40 -120 0 -120
0 0 -40 0 -40 -120 0 -120 0 0 -40 0 -40 -120 0 -120 0 0 -40 0 -40 -160 0
-160 0 0 -40 0 -40 -160 0 -160 0 0 -40 0 -40 -79 0 c-75 0 -80 -1 -84 -22 -2
-13 -5 4 -6 37 -7 304 -93 934 -142 1040 -5 11 -13 34 -18 52 -9 31 -8 32 27
37 21 3 98 11 172 16 74 6 187 17 250 25 63 8 152 17 198 20 80 5 327 35 447
54 396 63 585 99 880 168 183 43 471 121 545 148 25 9 79 25 120 36 71 19 141
41 185 59 58 24 146 54 188 63 26 6 47 15 47 19 0 4 8 8 18 8 10 0 63 18 118
39 54 21 137 53 184 71 47 17 99 37 115 45 17 8 66 28 110 46 44 17 125 53
180 79 55 26 128 60 163 75 34 16 62 32 62 37 0 4 7 8 15 8 18 0 137 58 145
70 3 5 17 11 32 15 15 4 32 13 39 21 6 8 17 14 23 14 6 0 49 23 96 51 47 29
105 63 130 76 92 51 259 154 362 224 15 11 35 16 45 13 13 -4 15 -3 5 4 -11 7
-6 14 20 30 18 11 34 21 36 21 1 1 15 -11 30 -26z m226 -338 c3 -9 0 -15 -9
-15 -8 0 -15 7 -15 15 0 8 4 15 9 15 5 0 11 -7 15 -15z m46 -86 c0 -13 -24
-11 -38 3 -7 7 -12 18 -12 25 0 10 6 10 25 -3 14 -9 25 -20 25 -25z m10 -79
c0 -5 -5 -10 -11 -10 -5 0 -7 5 -4 10 3 6 8 10 11 10 2 0 4 -4 4 -10z m35 -80
c3 -5 1 -10 -4 -10 -6 0 -11 5 -11 10 0 6 2 10 4 10 3 0 8 -4 11 -10z m25 -75
c10 -12 10 -15 -4 -15 -9 0 -16 7 -16 15 0 8 2 15 4 15 2 0 9 -7 16 -15z m84
-130 c3 -8 1 -15 -4 -15 -6 0 -10 7 -10 15 0 8 2 15 4 15 2 0 6 -7 10 -15z
m36 -55 c0 -5 -2 -10 -4 -10 -3 0 -8 5 -11 10 -3 6 -1 10 4 10 6 0 11 -4 11
-10z m7 -62 c-3 -8 -6 -5 -6 6 -1 11 2 17 5 13 3 -3 4 -12 1 -19z m-10074
-376 c10 -8 16 -20 14 -26 -3 -6 2 -22 9 -36 15 -28 35 -101 94 -340 47 -189
87 -327 100 -352 6 -10 10 -22 10 -27 0 -29 105 -226 166 -312 55 -77 62 -84
135 -158 113 -113 350 -301 379 -301 5 0 10 -4 10 -10 0 -5 4 -10 9 -10 5 0
40 -19 77 -42 171 -104 409 -187 624 -218 99 -15 373 -15 480 -1 469 64 802
185 1070 387 46 35 159 148 207 208 34 41 116 176 164 268 57 110 64 126 101
228 12 36 25 67 29 70 3 3 13 41 23 85 9 44 24 109 32 145 8 36 14 74 14 86 0
12 5 35 11 53 11 31 12 31 80 31 84 0 81 26 38 -300 -17 -125 -65 -309 -108
-415 -5 -11 -18 -47 -31 -80 -51 -137 -112 -244 -179 -313 -36 -37 -84 -81
-105 -97 -22 -17 -51 -39 -65 -51 -90 -72 -384 -228 -561 -297 -250 -99 -594
-180 -835 -197 -352 -25 -687 54 -1084 255 -347 176 -546 311 -646 435 -85
106 -180 308 -228 487 -30 109 -38 152 -82 436 -19 126 -44 269 -55 320 -11
50 -20 95 -20 99 0 13 18 9 22 -4 2 -9 16 -11 48 -7 l45 6 -42 1 c-24 1 -43 7
-43 13 0 16 70 2 93 -19z m-646 -1734 c-3 -8 -6 -5 -6 6 -1 11 2 17 5 13 3 -3
4 -12 1 -19z m63 7 c0 -8 -4 -15 -10 -15 -5 0 -10 7 -10 15 0 8 5 15 10 15 6
0 10 -7 10 -15z m-39 -72 c-9 -16 -10 -15 -11 8 0 14 3 29 8 33 12 12 14 -22
3 -41z m26 -110 c-2 -16 -4 -3 -4 27 0 30 2 43 4 28 2 -16 2 -40 0 -55z m-50
45 c-3 -8 -6 -5 -6 6 -1 11 2 17 5 13 3 -3 4 -12 1 -19z m50 -120 c-3 -7 -5
-2 -5 12 0 14 2 19 5 13 2 -7 2 -19 0 -25z m5420 26 c-3 -3 -12 -4 -19 -1 -8
3 -5 6 6 6 11 1 17 -2 13 -5z m30 -46 c2 -23 19 -449 24 -613 3 -97 -5 -161
-24 -186 -32 -42 -246 -85 -375 -75 -103 9 -139 21 -156 55 -16 30 -33 580
-21 673 6 51 8 54 48 70 28 11 88 18 180 22 152 7 265 28 299 56 13 11 23 19
23 20 0 0 1 -10 2 -22z m-5460 -155 c-3 -10 -5 -2 -5 17 0 19 2 27 5 18 2 -10
2 -26 0 -35z m1802 -102 c72 -22 178 -88 221 -137 63 -72 90 -160 90 -290 0
-233 -104 -419 -440 -788 -25 -27 -116 -120 -202 -207 -100 -100 -158 -165
-158 -178 0 -32 43 -37 98 -12 95 43 516 138 663 148 49 4 59 1 87 -22 34 -29
76 -126 67 -156 -4 -11 -14 -23 -24 -29 -38 -20 -170 -40 -266 -40 -96 -1
-192 -7 -465 -30 -280 -24 -355 -28 -374 -18 -41 22 0 132 106 285 24 34 112
160 197 280 269 381 389 559 438 648 25 45 28 60 28 150 0 88 -3 105 -24 138
-61 99 -165 107 -343 27 -113 -51 -148 -76 -263 -185 -83 -79 -93 -85 -132
-85 -121 0 -144 78 -46 162 20 18 85 80 144 137 59 57 127 116 152 132 40 24
159 71 212 82 55 12 177 6 234 -12z m1853 -24 c20 -9 39 -26 43 -37 17 -54 -1
-79 -256 -330 -205 -202 -249 -250 -249 -273 0 -15 2 -27 5 -27 4 0 39 14 92
36 42 19 155 18 228 -1 33 -9 102 -36 153 -61 151 -73 235 -175 277 -335 13
-50 16 -92 12 -194 -5 -144 -29 -231 -90 -330 -37 -60 -141 -181 -194 -227
-21 -18 -45 -40 -55 -48 -68 -61 -241 -139 -369 -166 -97 -20 -319 -21 -414 0
-109 23 -279 92 -297 120 -4 6 -8 37 -8 69 0 58 21 97 53 97 8 0 60 -17 118
-38 l104 -37 160 1 c181 0 243 14 389 86 157 76 276 192 343 330 51 106 67
172 61 258 -7 90 -41 149 -112 195 -80 51 -168 73 -388 97 -177 19 -211 20
-299 9 -110 -13 -139 -7 -139 33 0 27 100 128 370 372 53 48 114 104 213 194
54 50 61 81 22 106 -29 19 -1 20 -400 -21 -370 -39 -510 -52 -514 -49 -5 4 49
126 65 149 19 26 90 34 239 29 72 -3 209 -1 305 5 258 13 486 8 532 -12z"/>
<path d="M21122 25255 c0 -16 2 -22 5 -12 2 9 2 23 0 30 -3 6 -5 -1 -5 -18z"/>
<path d="M21152 25229 c-7 -28 -12 -64 -12 -80 0 -16 -4 -29 -10 -29 -5 0 -10
-10 -10 -22 0 -21 1 -21 15 6 8 15 15 42 15 60 1 17 7 49 15 71 17 48 17 45 7
45 -5 0 -14 -23 -20 -51z"/>
<path d="M12977 23003 c-4 -3 -7 -15 -7 -25 0 -10 -3 -17 -7 -17 -28 4 -64 -3
-77 -16 -8 -8 -17 -15 -21 -15 -3 0 -35 -13 -70 -30 -35 -16 -71 -30 -79 -30
-8 0 -17 -4 -20 -9 -3 -5 -27 -14 -52 -20 -26 -7 -56 -19 -68 -27 -11 -7 -31
-14 -44 -14 -13 0 -31 -4 -41 -10 -10 -5 -70 -18 -132 -30 -63 -11 -115 -25
-117 -30 -2 -6 -36 -10 -75 -10 -40 0 -91 -7 -115 -15 -24 -9 -48 -12 -54 -9
-14 9 -318 -28 -318 -38 0 -4 -16 -8 -36 -8 -19 0 -42 -7 -50 -15 -14 -13 -13
-15 9 -15 40 0 57 -10 57 -34 0 -20 9 -22 123 -39 68 -9 157 -26 198 -38 41
-11 85 -23 99 -26 24 -5 23 -4 -6 18 -36 27 -42 44 -16 45 74 4 205 17 242 24
25 5 74 14 110 21 97 18 310 101 310 120 0 5 5 9 11 9 24 0 132 85 197 156 77
83 105 134 73 134 -10 0 -21 -3 -24 -7z m-1234 -420 c-13 -2 -33 -2 -45 0 -13
2 -3 4 22 4 25 0 35 -2 23 -4z"/>
<path d="M25918 21115 c22 -39 51 -70 58 -62 4 4 -9 24 -31 45 -21 20 -33 28
-27 17z"/>
<path d="M21142 20900 c0 -14 2 -19 5 -12 2 6 2 18 0 25 -3 6 -5 1 -5 -13z"/>
<path d="M21152 20835 c0 -16 10 -79 23 -140 13 -60 22 -88 19 -62 -3 27 -8
59 -10 70 -3 12 -11 54 -18 92 -8 39 -14 57 -14 40z"/>
<path d="M21202 20540 c0 -14 2 -19 5 -12 2 6 2 18 0 25 -3 6 -5 1 -5 -13z"/>
<path d="M26038 19975 c-23 -30 -22 -32 3 -38 24 -6 33 10 22 40 -8 21 -8 21
-25 -2z"/>
<path d="M24875 19939 c10 -15 30 -40 60 -73 17 -18 23 -20 33 -10 8 9 6 18
-13 36 -29 29 -91 66 -80 47z"/>
<path d="M25960 19889 c0 -5 5 -7 10 -4 6 3 10 8 10 11 0 2 -4 4 -10 4 -5 0
-10 -5 -10 -11z"/>
<path d="M25800 19805 c-16 -19 0 -19 26 0 16 12 16 14 3 15 -9 0 -22 -7 -29
-15z"/>
<path d="M6828 19266 c-16 -6 -44 -27 -64 -46 -127 -121 -82 -290 78 -290 74
0 135 27 180 79 80 94 66 201 -32 251 -44 23 -119 25 -162 6z"/>
<path d="M23875 19260 c3 -5 11 -10 16 -10 6 0 7 5 4 10 -3 6 -11 10 -16 10
-6 0 -7 -4 -4 -10z"/>
<path d="M23992 19181 c7 -11 24 -26 38 -33 14 -7 27 -15 30 -19 12 -12 98
-66 135 -83 22 -11 42 -22 45 -25 11 -13 111 -61 127 -61 18 0 -42 37 -107 66
-19 9 -37 19 -40 23 -11 13 -112 71 -126 71 -8 0 -14 3 -14 8 0 4 -18 18 -40
32 -22 14 -40 28 -40 32 0 5 -5 8 -10 8 -6 0 -5 -8 2 -19z"/>
<path d="M3522 15580 c0 -14 2 -19 5 -12 2 6 2 18 0 25 -3 6 -5 1 -5 -13z"/>
<path d="M3521 14014 c0 -11 3 -14 6 -6 3 7 2 16 -1 19 -3 4 -6 -2 -5 -13z"/>
<path d="M25972 10860 c0 -14 2 -19 5 -12 2 6 2 18 0 25 -3 6 -5 1 -5 -13z"/>
<path d="M25913 10240 c0 -25 2 -35 4 -22 2 12 2 32 0 45 -2 12 -4 2 -4 -23z"/>
<path d="M25912 10020 c0 -14 2 -19 5 -12 2 6 2 18 0 25 -3 6 -5 1 -5 -13z"/>
<path d="M25866 10015 c-3 -8 -1 -15 4 -15 6 0 10 7 10 15 0 8 -2 15 -4 15 -2
0 -6 -7 -10 -15z"/>
<path d="M4482 9760 c0 -14 2 -19 5 -12 2 6 2 18 0 25 -3 6 -5 1 -5 -13z"/>
<path d="M4881 8704 c0 -11 3 -14 6 -6 3 7 2 16 -1 19 -3 4 -6 -2 -5 -13z"/>
<path d="M4960 8496 c0 -9 5 -16 10 -16 6 0 10 4 10 9 0 6 -4 13 -10 16 -5 3
-10 -1 -10 -9z"/>
<path d="M5220 8044 c0 -8 5 -12 10 -9 6 4 8 11 5 16 -9 14 -15 11 -15 -7z"/>
<path d="M12279 19180 c-125 -66 -158 -234 -66 -332 60 -64 193 -14 247 92 43
84 38 180 -11 230 -26 26 -38 30 -82 30 -31 -1 -67 -9 -88 -20z"/>
<path d="M6785 6570 c-3 -5 -1 -10 4 -10 6 0 11 5 11 10 0 6 -2 10 -4 10 -3 0
-8 -4 -11 -10z"/>
<path d="M6615 6520 c-3 -5 1 -10 9 -10 9 0 16 5 16 10 0 6 -4 10 -9 10 -6 0
-13 -4 -16 -10z"/>
<path d="M6575 6500 c4 -6 11 -8 16 -5 14 9 11 15 -7 15 -8 0 -12 -5 -9 -10z"/>
<path d="M6618 6483 c7 -3 16 -2 19 1 4 3 -2 6 -13 5 -11 0 -14 -3 -6 -6z"/>
<path d="M12161 4014 c0 -11 3 -14 6 -6 3 7 2 16 -1 19 -3 4 -6 -2 -5 -13z"/>
<path d="M22218 5763 c7 -3 16 -2 19 1 4 3 -2 6 -13 5 -11 0 -14 -3 -6 -6z"/>
<path d="M22038 5683 c7 -3 16 -2 19 1 4 3 -2 6 -13 5 -11 0 -14 -3 -6 -6z"/>
<path d="M21940 5640 c-13 -8 -12 -10 3 -10 9 0 17 5 17 10 0 12 -1 12 -20 0z"/>
<path d="M21968 5603 c7 -3 16 -2 19 1 4 3 -2 6 -13 5 -11 0 -14 -3 -6 -6z"/>
<path d="M21625 5460 c4 -6 11 -8 16 -5 14 9 11 15 -7 15 -8 0 -12 -5 -9 -10z"/>
<path d="M20088 4813 c7 -3 16 -2 19 1 4 3 -2 6 -13 5 -11 0 -14 -3 -6 -6z"/>
<path d="M18855 4500 c-3 -5 1 -10 9 -10 9 0 16 5 16 10 0 6 -4 10 -9 10 -6 0
-13 -4 -16 -10z"/>
<path d="M17497 3675 c3 -38 7 -72 9 -74 7 -8 3 64 -6 104 -7 31 -7 24 -3 -30z"/>
<path d="M17507 3499 c3 -24 7 -46 9 -48 9 -10 3 65 -5 78 -6 10 -8 -1 -4 -30z"/>
<path d="M17513 3400 c0 -25 2 -35 4 -22 2 12 2 32 0 45 -2 12 -4 2 -4 -23z"/>
</g>
</svg>
